<svg width="795" height="192" viewBox="0 0 795 192" fill="none" xmlns="http://www.w3.org/2000/svg">
<path d="M132.984 109.166L182.984 131.183V116.801L149.213 103.236V102.597L182.984 89.0312V74.6491L132.984 96.6662V109.166ZM192.506 132H207.634V101.141C207.634 94.429 212.534 89.8125 219.21 89.8125C221.305 89.8125 224.182 90.1676 225.602 90.6293V77.206C224.253 76.8864 222.371 76.6733 220.844 76.6733C214.736 76.6733 209.729 80.2244 207.74 86.9716H207.172V77.4545H192.506V132ZM250.243 133.065C263.737 133.065 272.828 126.496 274.958 116.375L260.967 115.452C259.44 119.607 255.534 121.773 250.491 121.773C242.927 121.773 238.133 116.766 238.133 108.634V108.598H275.278V104.443C275.278 85.9062 264.056 76.7443 249.639 76.7443C233.588 76.7443 223.183 88.1435 223.183 104.976C223.183 122.27 233.446 133.065 250.243 133.065ZM238.133 99.223C238.453 93.0085 243.176 88.0369 249.887 88.0369C256.457 88.0369 261.002 92.7244 261.038 99.223H238.133ZM295.204 133.03C303.265 133.03 308.485 129.514 311.149 124.436H311.575V132H325.922V95.2102C325.922 82.2131 314.913 76.7443 302.768 76.7443C289.7 76.7443 281.106 82.9943 279.011 92.9375L293.002 94.0739C294.032 90.4517 297.264 87.7884 302.697 87.7884C307.846 87.7884 310.794 90.3807 310.794 94.8551V95.0682C310.794 98.5838 307.065 99.0455 297.583 99.9688C286.788 100.963 277.093 104.585 277.093 116.766C277.093 127.561 284.799 133.03 295.204 133.03ZM299.537 122.589C294.885 122.589 291.547 120.423 291.547 116.268C291.547 112.007 295.062 109.912 300.389 109.166C303.691 108.705 309.089 107.923 310.9 106.716V112.504C310.9 118.222 306.177 122.589 299.537 122.589ZM356.803 133.065C371.327 133.065 380.453 124.543 381.164 112.007H366.888C366 117.831 362.165 121.098 356.98 121.098C349.914 121.098 345.333 115.168 345.333 104.727C345.333 94.429 349.949 88.5341 356.98 88.5341C362.52 88.5341 366.071 92.1918 366.888 97.625H381.164C380.525 85.0185 370.972 76.7443 356.732 76.7443C340.184 76.7443 329.956 88.2145 329.956 104.94C329.956 121.524 340.006 133.065 356.803 133.065ZM414.362 77.4545H404.099V64.3864H388.972V77.4545H381.514V88.8182H388.972V117.227C388.901 127.916 396.18 133.207 407.153 132.746C411.06 132.604 413.83 131.822 415.357 131.325L412.977 120.068C412.232 120.21 410.634 120.565 409.213 120.565C406.195 120.565 404.099 119.429 404.099 115.239V88.8182H414.362V77.4545ZM451.041 96.1335H417.873V108.136H451.041V96.1335ZM473.559 100.466C473.595 93.4347 477.785 89.3153 483.893 89.3153C489.966 89.3153 493.623 93.2926 493.588 99.9688V132H508.716V97.2699C508.716 84.5568 501.258 76.7443 489.895 76.7443C481.798 76.7443 475.939 80.7216 473.488 87.0781H472.849V77.4545H458.431V132H473.559V100.466ZM515.138 132H530.266V77.4545H515.138V132ZM522.738 70.4233C527.248 70.4233 530.941 66.9787 530.941 62.7528C530.941 58.5625 527.248 55.1179 522.738 55.1179C518.263 55.1179 514.57 58.5625 514.57 62.7528C514.57 66.9787 518.263 70.4233 522.738 70.4233ZM552.012 59.2727H536.885V132H552.012V59.2727ZM607.951 55.8636H594.919L571.481 142.938H584.514L607.951 55.8636ZM662.688 109.166V96.6662L612.688 74.6491V89.0312L646.459 102.597V103.236L612.688 116.801V131.183L662.688 109.166Z" fill="black"/>
</svg>
