<svg width="405" height="134" viewBox="0 0 405 134" fill="none" xmlns="http://www.w3.org/2000/svg">
<path d="M22.7244 103H37.8523V72.1406C37.8523 65.429 42.7528 60.8125 49.429 60.8125C51.5241 60.8125 54.4006 61.1676 55.821 61.6293V48.206C54.4716 47.8864 52.5895 47.6733 51.0625 47.6733C44.9545 47.6733 39.9474 51.2244 37.9588 57.9716H37.3906V48.4545H22.7244V103ZM80.4613 104.065C93.9556 104.065 103.047 97.4957 105.177 87.375L91.1857 86.4517C89.6587 90.6065 85.7525 92.7727 80.7099 92.7727C73.146 92.7727 68.3519 87.7656 68.3519 79.6335V79.598H105.497V75.4432C105.497 56.9062 94.2752 47.7443 79.8576 47.7443C63.8065 47.7443 53.4016 59.1435 53.4016 75.9759C53.4016 93.2699 63.6644 104.065 80.4613 104.065ZM68.3519 70.223C68.6715 64.0085 73.3945 59.0369 80.1062 59.0369C86.6758 59.0369 91.2212 63.7244 91.2567 70.223H68.3519ZM125.423 104.03C133.484 104.03 138.704 100.514 141.368 95.4361H141.794V103H156.14V66.2102C156.14 53.2131 145.132 47.7443 132.987 47.7443C119.919 47.7443 111.325 53.9943 109.23 63.9375L123.221 65.0739C124.251 61.4517 127.483 58.7884 132.916 58.7884C138.065 58.7884 141.012 61.3807 141.012 65.8551V66.0682C141.012 69.5838 137.284 70.0455 127.802 70.9688C117.007 71.9631 107.312 75.5852 107.312 87.7656C107.312 98.5611 115.018 104.03 125.423 104.03ZM129.755 93.5895C125.103 93.5895 121.765 91.4233 121.765 87.2685C121.765 83.0071 125.281 80.9119 130.608 80.1662C133.91 79.7045 139.308 78.9233 141.119 77.7159V83.5043C141.119 89.2216 136.396 93.5895 129.755 93.5895ZM187.022 104.065C201.546 104.065 210.672 95.5426 211.382 83.0071H197.107C196.219 88.831 192.384 92.098 187.199 92.098C180.132 92.098 175.551 86.1676 175.551 75.7273C175.551 65.429 180.168 59.5341 187.199 59.5341C192.739 59.5341 196.29 63.1918 197.107 68.625H211.382C210.743 56.0185 201.191 47.7443 186.951 47.7443C170.402 47.7443 160.175 59.2145 160.175 75.9403C160.175 92.5241 170.225 104.065 187.022 104.065ZM244.581 48.4545H234.318V35.3864H219.19V48.4545H211.733V59.8182H219.19V88.2273C219.119 98.9162 226.399 104.207 237.372 103.746C241.278 103.604 244.048 102.822 245.575 102.325L243.196 91.0682C242.45 91.2102 240.852 91.5653 239.432 91.5653C236.413 91.5653 234.318 90.429 234.318 86.2386V59.8182H244.581V48.4545ZM281.26 67.1335H248.092V79.1364H281.26V67.1335Z" fill="black"/>
<path d="M303.778 71.4659C303.814 64.4347 308.004 60.3153 314.112 60.3153C320.184 60.3153 323.842 64.2926 323.806 70.9688V103H338.934V68.2699C338.934 55.5568 331.477 47.7443 320.113 47.7443C312.017 47.7443 306.157 51.7216 303.707 58.0781H303.068V48.4545H288.65V103H303.778V71.4659ZM345.357 103H360.485V48.4545H345.357V103ZM352.957 41.4233C357.467 41.4233 361.16 37.9787 361.16 33.7528C361.16 29.5625 357.467 26.1179 352.957 26.1179C348.482 26.1179 344.789 29.5625 344.789 33.7528C344.789 37.9787 348.482 41.4233 352.957 41.4233ZM382.231 30.2727H367.103V103H382.231V30.2727Z" fill="#F77777"/>
</svg>
